<mxfile host="app.diagrams.net" modified="2024-03-26T16:22:02.602Z" agent="Mozilla/5.0 (X11; Linux x86_64; rv:109.0) Gecko/20100101 Firefox/115.0" version="24.2.0" etag="gNqXdj5YMbp-jM7vkU0l" type="github">
  <diagram name="Page-1" id="ATD__RF7tZNVyBEBNOeZ">
    <mxGraphModel>
      <root>
        <mxCell id="0" />
        <mxCell id="1" parent="0" />
      </root>
    </mxGraphModel>
  </diagram>
</mxfile>
